<svg width="424" height="167" viewBox="0 0 424 167" fill="none" xmlns="http://www.w3.org/2000/svg">
<path d="M27.6729 2.41948C27.6729 1.08324 28.7561 0 30.0923 0H226.512C227.848 0 228.932 1.08324 228.932 2.41948V38.6576H27.6729V2.41948Z" fill="#212C62"/>
<path d="M63.3251 11.0073C61.2263 11.0073 59.4438 11.7261 58.2363 13.1924V11.1798H54.8149V32.1102H58.4088V24.6638C59.645 26.0726 61.3701 26.7339 63.3251 26.7339C67.8102 26.7339 71.1165 23.6288 71.1165 18.8562C71.1165 14.1124 67.8102 11.0073 63.3251 11.0073ZM62.9226 23.6576C60.335 23.6576 58.3513 21.7888 58.3513 18.8562C58.3513 15.9237 60.335 14.0549 62.9226 14.0549C65.5101 14.0549 67.4652 15.9237 67.4652 18.8562C67.4652 21.7888 65.5101 23.6576 62.9226 23.6576Z" fill="#EDF2F4"/>
<path d="M78.8086 13.4224V11.1798H75.3873V26.5326H78.9811V19.0862C78.9811 15.9524 80.7062 14.3424 83.4375 14.3424C83.6962 14.3424 83.955 14.3711 84.2712 14.4286V11.0073C81.7124 11.0073 79.8436 11.8123 78.8086 13.4224Z" fill="#EDF2F4"/>
<path d="M94.9422 26.7339C99.7148 26.7339 103.136 23.4563 103.136 18.8562C103.136 14.2561 99.7148 11.0073 94.9422 11.0073C90.2271 11.0073 86.777 14.2561 86.777 18.8562C86.777 23.4563 90.2271 26.7339 94.9422 26.7339ZM94.9422 23.6576C92.3546 23.6576 90.3996 21.7888 90.3996 18.8562C90.3996 15.9237 92.3546 14.0549 94.9422 14.0549C97.5585 14.0549 99.5135 15.9237 99.5135 18.8562C99.5135 21.7888 97.5585 23.6576 94.9422 23.6576Z" fill="#EDF2F4"/>
<path d="M119.252 11.1798V13.2211C117.987 11.6973 116.089 11.0073 113.933 11.0073C109.534 11.0073 106.17 13.9399 106.17 18.3962C106.17 22.8525 109.534 25.8426 113.933 25.8426C116.003 25.8426 117.814 25.1813 119.079 23.8013V24.6063C119.079 27.7114 117.584 29.2639 114.192 29.2639C112.064 29.2639 109.879 28.5452 108.528 27.4239L106.918 30.1264C108.671 31.564 111.518 32.3115 114.393 32.3115C119.769 32.3115 122.673 29.7814 122.673 24.2038V11.1798H119.252ZM114.479 22.795C111.748 22.795 109.793 21.0125 109.793 18.3962C109.793 15.8087 111.748 14.0549 114.479 14.0549C117.182 14.0549 119.137 15.8087 119.137 18.3962C119.137 21.0125 117.182 22.795 114.479 22.795Z" fill="#EDF2F4"/>
<path d="M131.682 13.4224V11.1798H128.26V26.5326H131.854V19.0862C131.854 15.9524 133.579 14.3424 136.31 14.3424C136.569 14.3424 136.828 14.3711 137.144 14.4286V11.0073C134.585 11.0073 132.717 11.8123 131.682 13.4224Z" fill="#EDF2F4"/>
<path d="M146.836 11.0073C144.364 11.0073 141.977 11.6398 140.339 12.9049L141.747 15.5212C142.897 14.5724 144.68 13.9974 146.405 13.9974C148.964 13.9974 150.229 15.2337 150.229 17.3324V17.5624H146.261C141.604 17.5624 139.879 19.575 139.879 22.1338C139.879 24.8076 142.092 26.7339 145.6 26.7339C147.9 26.7339 149.568 25.9864 150.43 24.6638V26.5326H153.823V17.5337C153.823 13.1061 151.264 11.0073 146.836 11.0073ZM146.347 24.1176C144.507 24.1176 143.415 23.2838 143.415 21.99C143.415 20.8688 144.076 19.9487 146.52 19.9487H150.229V21.7313C149.625 23.3126 148.101 24.1176 146.347 24.1176Z" fill="#EDF2F4"/>
<path d="M178.675 11.0073C176.231 11.0073 174.161 11.9848 172.925 13.5661C171.861 11.8411 169.993 11.0073 167.75 11.0073C165.651 11.0073 163.869 11.7548 162.719 13.1349V11.1798H159.297V26.5326H162.891V18.7412C162.891 15.6937 164.501 14.1411 166.887 14.1411C169.073 14.1411 170.338 15.4637 170.338 18.195V26.5326H173.931V18.7412C173.931 15.6937 175.57 14.1411 177.928 14.1411C180.113 14.1411 181.378 15.4637 181.378 18.195V26.5326H184.972V17.735C184.972 13.1061 182.384 11.0073 178.675 11.0073Z" fill="#EDF2F4"/>
<path d="M201.071 11.1798L196.212 22.5363L191.382 11.1798H187.644L194.343 26.5901L194.085 27.1939C193.395 28.7177 192.647 29.3214 191.382 29.3214C190.405 29.3214 189.427 28.9189 188.737 28.2577L187.299 30.9027C188.277 31.794 189.887 32.3115 191.411 32.3115C193.97 32.3115 195.925 31.2477 197.333 27.7689L204.521 11.1798H201.071Z" fill="#EDF2F4"/>
<mask id="path-3-outside-1_672_6" maskUnits="userSpaceOnUse" x="26.8477" y="13.1987" width="367" height="133" fill="black">
<rect fill="white" x="26.8477" y="13.1987" width="367" height="133"/>
<path d="M58.365 48.7691H79.4649L67.7228 92.2206L81.9086 143.719H60.1531L48.7091 97.7042V143.719H27.8477V48.7691H48.5899V86.737L58.365 48.7691Z"/>
<path d="M86.3789 143.719V48.7691H107.36V125.182H128.936V143.719H86.3789Z"/>
<path d="M134.36 118.566V48.7691H154.745V116.718C154.745 116.797 154.745 116.936 154.745 117.135C154.745 118.168 154.745 118.983 154.745 119.579C154.785 120.175 154.884 120.99 155.043 122.023C155.242 123.056 155.5 123.87 155.818 124.466C156.175 125.062 156.692 125.599 157.368 126.076C158.043 126.513 158.877 126.731 159.871 126.731C160.705 126.731 161.421 126.592 162.017 126.314C162.652 126.036 163.149 125.619 163.507 125.062C163.864 124.466 164.143 123.91 164.341 123.394C164.58 122.837 164.739 122.122 164.818 121.248C164.898 120.334 164.937 119.639 164.937 119.162C164.977 118.685 164.997 118.009 164.997 117.135C164.997 116.936 164.997 116.797 164.997 116.718V48.7691H185.381V118.566C185.381 127.149 183.315 133.665 179.183 138.116C175.09 142.566 168.692 144.772 159.99 144.732C151.129 144.772 144.632 142.566 140.5 138.116C136.407 133.665 134.36 127.149 134.36 118.566Z"/>
<path d="M195.455 143.719V48.7691H223.886C231.316 48.7691 236.82 50.4182 240.396 53.7163C243.972 56.9747 245.76 62.5576 245.76 70.4651C245.76 70.7035 245.76 71.0412 245.76 71.4783C245.76 72.8691 245.76 73.9022 245.76 74.5778C245.76 75.2533 245.681 76.3063 245.522 77.7368C245.403 79.1673 245.204 80.2998 244.926 81.1342C244.688 81.9289 244.31 82.9223 243.794 84.1144C243.277 85.3065 242.641 86.28 241.886 87.035C241.131 87.79 240.178 88.5251 239.025 89.2404C237.873 89.9556 236.542 90.4921 235.032 90.8497C237.217 91.3663 239.085 92.2603 240.635 93.5319C242.184 94.8034 243.356 96.1545 244.151 97.585C244.946 98.9757 245.562 100.704 245.999 102.771C246.476 104.837 246.754 106.565 246.833 107.956C246.913 109.347 246.953 111.016 246.953 112.963C246.953 117.97 246.595 122.261 245.88 125.837C245.204 129.414 244.012 132.612 242.303 135.434C240.595 138.215 238.211 140.301 235.151 141.692C232.131 143.043 228.376 143.719 223.886 143.719H195.455ZM215.958 99.3135V126.851C216.912 126.93 217.607 126.97 218.045 126.97C223.488 126.97 226.21 124.625 226.21 119.937C226.21 119.937 226.21 115.983 226.21 108.075C226.21 105.055 225.694 102.85 224.661 101.459C223.667 100.029 222.058 99.3135 219.833 99.3135H215.958ZM215.958 84.5316H220.25C221.283 84.5316 222.118 84.3131 222.753 83.876C223.429 83.4389 223.906 82.823 224.184 82.0283C224.462 81.1938 224.641 80.4587 224.72 79.8229C224.8 79.1474 224.839 78.3527 224.839 77.4388V68.0213C224.839 65.0014 223.349 63.4914 220.369 63.4914H215.958V84.5316Z"/>
<path d="M267.576 40.4842V27.1924L295.888 14.1987V34.8814L267.576 40.4842ZM253.092 118.089V72.8492C253.092 64.9417 255.218 58.8224 259.469 54.4911C263.761 50.1202 270.198 47.8751 278.781 47.7559C287.603 47.8751 294.139 50.1202 298.391 54.4911C302.682 58.8224 304.828 64.9417 304.828 72.8492V118.089C304.828 121.943 304.332 125.46 303.338 128.639C302.384 131.778 300.914 134.579 298.927 137.043C296.941 139.507 294.239 141.414 290.821 142.765C287.444 144.116 283.55 144.732 279.139 144.613C274.49 144.732 270.456 144.116 267.039 142.765C263.662 141.414 260.979 139.507 258.993 137.043C257.006 134.579 255.516 131.778 254.522 128.639C253.569 125.46 253.092 121.943 253.092 118.089ZM278.96 126.016C279.715 126.016 280.371 125.877 280.927 125.599C281.523 125.281 281.98 124.824 282.298 124.228C282.655 123.592 282.934 122.996 283.132 122.44C283.331 121.884 283.47 121.148 283.55 120.235C283.629 119.281 283.669 118.566 283.669 118.089C283.708 117.572 283.728 116.877 283.728 116.003C283.728 115.804 283.728 115.645 283.728 115.526V77.3791C283.728 77.1407 283.728 76.6639 283.728 75.9486C283.768 75.2334 283.768 74.697 283.728 74.3393C283.728 73.9817 283.708 73.4651 283.669 72.7896C283.669 72.0744 283.609 71.5379 283.49 71.1803C283.41 70.783 283.291 70.3061 283.132 69.7498C283.013 69.1538 282.834 68.7167 282.596 68.4385C282.357 68.1206 282.079 67.8027 281.761 67.4849C281.444 67.1272 281.046 66.8888 280.569 66.7696C280.092 66.6107 279.556 66.5312 278.96 66.5312C278.126 66.5312 277.39 66.6703 276.755 66.9484C276.159 67.2266 275.682 67.6835 275.324 68.3193C274.967 68.9154 274.669 69.4717 274.43 69.9882C274.192 70.4651 274.033 71.2002 273.953 72.1936C273.874 73.1473 273.834 73.8426 273.834 74.2797C273.834 74.6771 273.834 75.3725 273.834 76.3659C273.834 76.5248 273.834 76.6639 273.834 76.7831C273.834 76.9023 273.834 77.0215 273.834 77.1407V115.287C273.834 116.162 273.834 116.857 273.834 117.374C273.874 117.89 273.933 118.645 274.013 119.639C274.092 120.632 274.231 121.446 274.43 122.082C274.669 122.678 274.967 123.314 275.324 123.99C275.682 124.665 276.159 125.182 276.755 125.539C277.39 125.857 278.126 126.016 278.96 126.016Z"/>
<path d="M335.882 108.671L341.783 48.7691H361.333L366.936 108.671L372.539 48.7691H393.281L381.837 143.719H356.684L351.439 97.9426L346.432 143.719H320.862L309.597 48.7691H330.1L335.882 108.671Z"/>
</mask>
<path d="M58.365 48.7691H79.4649L67.7228 92.2206L81.9086 143.719H60.1531L48.7091 97.7042V143.719H27.8477V48.7691H48.5899V86.737L58.365 48.7691Z" fill="#D90429"/>
<path d="M86.3789 143.719V48.7691H107.36V125.182H128.936V143.719H86.3789Z" fill="#D90429"/>
<path d="M134.36 118.566V48.7691H154.745V116.718C154.745 116.797 154.745 116.936 154.745 117.135C154.745 118.168 154.745 118.983 154.745 119.579C154.785 120.175 154.884 120.99 155.043 122.023C155.242 123.056 155.5 123.87 155.818 124.466C156.175 125.062 156.692 125.599 157.368 126.076C158.043 126.513 158.877 126.731 159.871 126.731C160.705 126.731 161.421 126.592 162.017 126.314C162.652 126.036 163.149 125.619 163.507 125.062C163.864 124.466 164.143 123.91 164.341 123.394C164.58 122.837 164.739 122.122 164.818 121.248C164.898 120.334 164.937 119.639 164.937 119.162C164.977 118.685 164.997 118.009 164.997 117.135C164.997 116.936 164.997 116.797 164.997 116.718V48.7691H185.381V118.566C185.381 127.149 183.315 133.665 179.183 138.116C175.09 142.566 168.692 144.772 159.99 144.732C151.129 144.772 144.632 142.566 140.5 138.116C136.407 133.665 134.36 127.149 134.36 118.566Z" fill="#D90429"/>
<path d="M195.455 143.719V48.7691H223.886C231.316 48.7691 236.82 50.4182 240.396 53.7163C243.972 56.9747 245.76 62.5576 245.76 70.4651C245.76 70.7035 245.76 71.0412 245.76 71.4783C245.76 72.8691 245.76 73.9022 245.76 74.5778C245.76 75.2533 245.681 76.3063 245.522 77.7368C245.403 79.1673 245.204 80.2998 244.926 81.1342C244.688 81.9289 244.31 82.9223 243.794 84.1144C243.277 85.3065 242.641 86.28 241.886 87.035C241.131 87.79 240.178 88.5251 239.025 89.2404C237.873 89.9556 236.542 90.4921 235.032 90.8497C237.217 91.3663 239.085 92.2603 240.635 93.5319C242.184 94.8034 243.356 96.1545 244.151 97.585C244.946 98.9757 245.562 100.704 245.999 102.771C246.476 104.837 246.754 106.565 246.833 107.956C246.913 109.347 246.953 111.016 246.953 112.963C246.953 117.97 246.595 122.261 245.88 125.837C245.204 129.414 244.012 132.612 242.303 135.434C240.595 138.215 238.211 140.301 235.151 141.692C232.131 143.043 228.376 143.719 223.886 143.719H195.455ZM215.958 99.3135V126.851C216.912 126.93 217.607 126.97 218.045 126.97C223.488 126.97 226.21 124.625 226.21 119.937C226.21 119.937 226.21 115.983 226.21 108.075C226.21 105.055 225.694 102.85 224.661 101.459C223.667 100.029 222.058 99.3135 219.833 99.3135H215.958ZM215.958 84.5316H220.25C221.283 84.5316 222.118 84.3131 222.753 83.876C223.429 83.4389 223.906 82.823 224.184 82.0283C224.462 81.1938 224.641 80.4587 224.72 79.8229C224.8 79.1474 224.839 78.3527 224.839 77.4388V68.0213C224.839 65.0014 223.349 63.4914 220.369 63.4914H215.958V84.5316Z" fill="#D90429"/>
<path d="M267.576 40.4842V27.1924L295.888 14.1987V34.8814L267.576 40.4842ZM253.092 118.089V72.8492C253.092 64.9417 255.218 58.8224 259.469 54.4911C263.761 50.1202 270.198 47.8751 278.781 47.7559C287.603 47.8751 294.139 50.1202 298.391 54.4911C302.682 58.8224 304.828 64.9417 304.828 72.8492V118.089C304.828 121.943 304.332 125.46 303.338 128.639C302.384 131.778 300.914 134.579 298.927 137.043C296.941 139.507 294.239 141.414 290.821 142.765C287.444 144.116 283.55 144.732 279.139 144.613C274.49 144.732 270.456 144.116 267.039 142.765C263.662 141.414 260.979 139.507 258.993 137.043C257.006 134.579 255.516 131.778 254.522 128.639C253.569 125.46 253.092 121.943 253.092 118.089ZM278.96 126.016C279.715 126.016 280.371 125.877 280.927 125.599C281.523 125.281 281.98 124.824 282.298 124.228C282.655 123.592 282.934 122.996 283.132 122.44C283.331 121.884 283.47 121.148 283.55 120.235C283.629 119.281 283.669 118.566 283.669 118.089C283.708 117.572 283.728 116.877 283.728 116.003C283.728 115.804 283.728 115.645 283.728 115.526V77.3791C283.728 77.1407 283.728 76.6639 283.728 75.9486C283.768 75.2334 283.768 74.697 283.728 74.3393C283.728 73.9817 283.708 73.4651 283.669 72.7896C283.669 72.0744 283.609 71.5379 283.49 71.1803C283.41 70.783 283.291 70.3061 283.132 69.7498C283.013 69.1538 282.834 68.7167 282.596 68.4385C282.357 68.1206 282.079 67.8027 281.761 67.4849C281.444 67.1272 281.046 66.8888 280.569 66.7696C280.092 66.6107 279.556 66.5312 278.96 66.5312C278.126 66.5312 277.39 66.6703 276.755 66.9484C276.159 67.2266 275.682 67.6835 275.324 68.3193C274.967 68.9154 274.669 69.4717 274.43 69.9882C274.192 70.4651 274.033 71.2002 273.953 72.1936C273.874 73.1473 273.834 73.8426 273.834 74.2797C273.834 74.6771 273.834 75.3725 273.834 76.3659C273.834 76.5248 273.834 76.6639 273.834 76.7831C273.834 76.9023 273.834 77.0215 273.834 77.1407V115.287C273.834 116.162 273.834 116.857 273.834 117.374C273.874 117.89 273.933 118.645 274.013 119.639C274.092 120.632 274.231 121.446 274.43 122.082C274.669 122.678 274.967 123.314 275.324 123.99C275.682 124.665 276.159 125.182 276.755 125.539C277.39 125.857 278.126 126.016 278.96 126.016Z" fill="#D90429"/>
<path d="M335.882 108.671L341.783 48.7691H361.333L366.936 108.671L372.539 48.7691H393.281L381.837 143.719H356.684L351.439 97.9426L346.432 143.719H320.862L309.597 48.7691H330.1L335.882 108.671Z" fill="#D90429"/>
<path d="M58.365 48.7691H79.4649L67.7228 92.2206L81.9086 143.719H60.1531L48.7091 97.7042V143.719H27.8477V48.7691H48.5899V86.737L58.365 48.7691Z" stroke="#212C62" stroke-width="0.967792" mask="url(#path-3-outside-1_672_6)"/>
<path d="M86.3789 143.719V48.7691H107.36V125.182H128.936V143.719H86.3789Z" stroke="#212C62" stroke-width="0.967792" mask="url(#path-3-outside-1_672_6)"/>
<path d="M134.36 118.566V48.7691H154.745V116.718C154.745 116.797 154.745 116.936 154.745 117.135C154.745 118.168 154.745 118.983 154.745 119.579C154.785 120.175 154.884 120.99 155.043 122.023C155.242 123.056 155.5 123.87 155.818 124.466C156.175 125.062 156.692 125.599 157.368 126.076C158.043 126.513 158.877 126.731 159.871 126.731C160.705 126.731 161.421 126.592 162.017 126.314C162.652 126.036 163.149 125.619 163.507 125.062C163.864 124.466 164.143 123.91 164.341 123.394C164.58 122.837 164.739 122.122 164.818 121.248C164.898 120.334 164.937 119.639 164.937 119.162C164.977 118.685 164.997 118.009 164.997 117.135C164.997 116.936 164.997 116.797 164.997 116.718V48.7691H185.381V118.566C185.381 127.149 183.315 133.665 179.183 138.116C175.09 142.566 168.692 144.772 159.99 144.732C151.129 144.772 144.632 142.566 140.5 138.116C136.407 133.665 134.36 127.149 134.36 118.566Z" stroke="#212C62" stroke-width="0.967792" mask="url(#path-3-outside-1_672_6)"/>
<path d="M195.455 143.719V48.7691H223.886C231.316 48.7691 236.82 50.4182 240.396 53.7163C243.972 56.9747 245.76 62.5576 245.76 70.4651C245.76 70.7035 245.76 71.0412 245.76 71.4783C245.76 72.8691 245.76 73.9022 245.76 74.5778C245.76 75.2533 245.681 76.3063 245.522 77.7368C245.403 79.1673 245.204 80.2998 244.926 81.1342C244.688 81.9289 244.31 82.9223 243.794 84.1144C243.277 85.3065 242.641 86.28 241.886 87.035C241.131 87.79 240.178 88.5251 239.025 89.2404C237.873 89.9556 236.542 90.4921 235.032 90.8497C237.217 91.3663 239.085 92.2603 240.635 93.5319C242.184 94.8034 243.356 96.1545 244.151 97.585C244.946 98.9757 245.562 100.704 245.999 102.771C246.476 104.837 246.754 106.565 246.833 107.956C246.913 109.347 246.953 111.016 246.953 112.963C246.953 117.97 246.595 122.261 245.88 125.837C245.204 129.414 244.012 132.612 242.303 135.434C240.595 138.215 238.211 140.301 235.151 141.692C232.131 143.043 228.376 143.719 223.886 143.719H195.455ZM215.958 99.3135V126.851C216.912 126.93 217.607 126.97 218.045 126.97C223.488 126.97 226.21 124.625 226.21 119.937C226.21 119.937 226.21 115.983 226.21 108.075C226.21 105.055 225.694 102.85 224.661 101.459C223.667 100.029 222.058 99.3135 219.833 99.3135H215.958ZM215.958 84.5316H220.25C221.283 84.5316 222.118 84.3131 222.753 83.876C223.429 83.4389 223.906 82.823 224.184 82.0283C224.462 81.1938 224.641 80.4587 224.72 79.8229C224.8 79.1474 224.839 78.3527 224.839 77.4388V68.0213C224.839 65.0014 223.349 63.4914 220.369 63.4914H215.958V84.5316Z" stroke="#212C62" stroke-width="0.967792" mask="url(#path-3-outside-1_672_6)"/>
<path d="M267.576 40.4842V27.1924L295.888 14.1987V34.8814L267.576 40.4842ZM253.092 118.089V72.8492C253.092 64.9417 255.218 58.8224 259.469 54.4911C263.761 50.1202 270.198 47.8751 278.781 47.7559C287.603 47.8751 294.139 50.1202 298.391 54.4911C302.682 58.8224 304.828 64.9417 304.828 72.8492V118.089C304.828 121.943 304.332 125.46 303.338 128.639C302.384 131.778 300.914 134.579 298.927 137.043C296.941 139.507 294.239 141.414 290.821 142.765C287.444 144.116 283.55 144.732 279.139 144.613C274.49 144.732 270.456 144.116 267.039 142.765C263.662 141.414 260.979 139.507 258.993 137.043C257.006 134.579 255.516 131.778 254.522 128.639C253.569 125.46 253.092 121.943 253.092 118.089ZM278.96 126.016C279.715 126.016 280.371 125.877 280.927 125.599C281.523 125.281 281.98 124.824 282.298 124.228C282.655 123.592 282.934 122.996 283.132 122.44C283.331 121.884 283.47 121.148 283.55 120.235C283.629 119.281 283.669 118.566 283.669 118.089C283.708 117.572 283.728 116.877 283.728 116.003C283.728 115.804 283.728 115.645 283.728 115.526V77.3791C283.728 77.1407 283.728 76.6639 283.728 75.9486C283.768 75.2334 283.768 74.697 283.728 74.3393C283.728 73.9817 283.708 73.4651 283.669 72.7896C283.669 72.0744 283.609 71.5379 283.49 71.1803C283.41 70.783 283.291 70.3061 283.132 69.7498C283.013 69.1538 282.834 68.7167 282.596 68.4385C282.357 68.1206 282.079 67.8027 281.761 67.4849C281.444 67.1272 281.046 66.8888 280.569 66.7696C280.092 66.6107 279.556 66.5312 278.96 66.5312C278.126 66.5312 277.39 66.6703 276.755 66.9484C276.159 67.2266 275.682 67.6835 275.324 68.3193C274.967 68.9154 274.669 69.4717 274.43 69.9882C274.192 70.4651 274.033 71.2002 273.953 72.1936C273.874 73.1473 273.834 73.8426 273.834 74.2797C273.834 74.6771 273.834 75.3725 273.834 76.3659C273.834 76.5248 273.834 76.6639 273.834 76.7831C273.834 76.9023 273.834 77.0215 273.834 77.1407V115.287C273.834 116.162 273.834 116.857 273.834 117.374C273.874 117.89 273.933 118.645 274.013 119.639C274.092 120.632 274.231 121.446 274.43 122.082C274.669 122.678 274.967 123.314 275.324 123.99C275.682 124.665 276.159 125.182 276.755 125.539C277.39 125.857 278.126 126.016 278.96 126.016Z" stroke="#212C62" stroke-width="0.967792" mask="url(#path-3-outside-1_672_6)"/>
<path d="M335.882 108.671L341.783 48.7691H361.333L366.936 108.671L372.539 48.7691H393.281L381.837 143.719H356.684L351.439 97.9426L346.432 143.719H320.862L309.597 48.7691H330.1L335.882 108.671Z" stroke="#212C62" stroke-width="0.967792" mask="url(#path-3-outside-1_672_6)"/>
<path d="M423.841 136.699C423.841 153.048 410.588 166.301 394.24 166.301C377.891 166.301 364.638 153.048 364.638 136.699C364.638 120.35 377.891 107.097 394.24 107.097C410.588 107.097 423.841 120.35 423.841 136.699Z" fill="#EDF2F4"/>
<path d="M377.135 147.014C378.783 147.014 380.096 145.763 380.096 144.024C380.096 142.254 378.783 141.094 377.135 141.094C375.488 141.094 374.175 142.254 374.175 144.024C374.175 145.763 375.488 147.014 377.135 147.014Z" fill="#8D99AE"/>
<path d="M394.705 130.108C392.508 130.108 390.738 130.81 389.547 132.244V130.352H385V152.691H389.761V145.031C390.982 146.374 392.66 147.014 394.705 147.014C399.313 147.014 402.884 143.719 402.884 138.561C402.884 133.404 399.313 130.108 394.705 130.108ZM393.881 143.108C391.501 143.108 389.7 141.399 389.7 138.561C389.7 135.723 391.501 134.014 393.881 134.014C396.261 134.014 398.062 135.723 398.062 138.561C398.062 141.399 396.261 143.108 393.881 143.108Z" fill="#8D99AE"/>
<path d="M407.749 146.77H412.51V124.126H407.749V146.77Z" fill="#8D99AE"/>
<mask id="path-6-outside-2_672_6" maskUnits="userSpaceOnUse" x="0" y="79.6846" width="51" height="33" fill="black">
<rect fill="white" y="79.6846" width="51" height="33"/>
<path d="M18.7791 86.9663L18.723 107.673H15.8451L15.8732 105.89C15.5924 106.152 15.3023 106.381 15.0028 106.578C14.7127 106.774 14.4179 106.948 14.1184 107.097C13.8282 107.238 13.5428 107.355 13.262 107.448C12.9813 107.551 12.7145 107.635 12.4618 107.701C11.8722 107.851 11.2873 107.935 10.7071 107.954C9.62142 107.954 8.61066 107.762 7.67477 107.378C6.73888 107.004 5.92466 106.466 5.2321 105.764C4.53954 105.052 3.99204 104.191 3.58961 103.181C3.19654 102.17 3 101.033 3 99.7692C3 98.4964 3.21993 97.364 3.6598 96.372C4.09967 95.3706 4.67524 94.5283 5.38652 93.8451C6.10716 93.1619 6.9167 92.6424 7.81516 92.2868C8.72297 91.9218 9.63546 91.7393 10.5526 91.7393C11.1797 91.7487 11.8161 91.8329 12.4618 91.992C13.014 92.123 13.6083 92.343 14.2447 92.6518C14.8811 92.9513 15.4754 93.3865 16.0276 93.9574L16.1399 86.7697L18.7791 86.9663ZM10.7071 105.371C11.2873 105.371 11.8535 105.277 12.4057 105.09C12.9579 104.903 13.4633 104.641 13.9218 104.304C14.3898 103.957 14.7969 103.546 15.1432 103.068C15.4895 102.591 15.7515 102.067 15.9293 101.496L15.9574 98.5058C15.7889 97.9068 15.5269 97.3593 15.1713 96.8633C14.8156 96.3579 14.3991 95.9274 13.9218 95.5718C13.4445 95.2161 12.9204 94.9401 12.3495 94.7435C11.788 94.547 11.2124 94.4487 10.6228 94.4487C9.93027 94.4487 9.29386 94.5938 8.71361 94.8839C8.13336 95.1647 7.63266 95.5531 7.21151 96.0491C6.79036 96.5451 6.46279 97.13 6.22882 97.8039C5.99485 98.4777 5.87786 99.2077 5.87786 99.9939C5.87786 100.78 5.99485 101.501 6.22882 102.156C6.47215 102.811 6.80439 103.377 7.22554 103.854C7.65605 104.332 8.16611 104.706 8.75572 104.977C9.35469 105.24 10.0051 105.371 10.7071 105.371Z"/>
<path d="M29.3702 107.785C28.7057 107.776 28.1161 107.663 27.6014 107.448C27.096 107.233 26.6468 106.957 26.2537 106.62C25.87 106.274 25.5377 105.881 25.257 105.441C24.9856 105.001 24.7563 104.556 24.5691 104.107C24.1199 103.04 23.8391 101.833 23.7268 100.485L24.1058 82.6846H27.0398C26.993 84.3505 26.9462 85.8806 26.8995 87.2751C26.862 88.6602 26.8293 89.9237 26.8012 91.0655C26.7731 92.1979 26.745 93.2133 26.717 94.1118C26.6982 95.0102 26.6795 95.8011 26.6608 96.4843C26.6234 98.094 26.5953 99.3621 26.5766 100.289C26.5953 101.159 26.7216 101.936 26.9556 102.619C27.0492 102.909 27.1709 103.195 27.3206 103.475C27.4797 103.756 27.6669 104.009 27.8821 104.233C28.1068 104.458 28.3688 104.641 28.6683 104.781C28.9771 104.912 29.3328 104.982 29.7352 104.992L29.3702 107.785Z"/>
<path d="M43.6955 107.982L43.892 106.002C42.7502 106.732 41.6272 107.261 40.5228 107.589C39.4278 107.916 38.403 108.08 37.4484 108.08C36.7746 108.08 36.1195 107.991 35.4831 107.813C34.856 107.645 34.2992 107.383 33.8125 107.027C33.3352 106.662 32.9468 106.203 32.6473 105.651C32.3572 105.09 32.2121 104.43 32.2121 103.672C32.2121 102.914 32.3244 102.235 32.549 101.636C32.7737 101.037 33.0825 100.509 33.4756 100.05C33.8687 99.5914 34.3319 99.1984 34.8654 98.8708C35.3988 98.5432 35.9697 98.2765 36.5781 98.0706C37.1957 97.8647 37.8415 97.715 38.5153 97.6214C39.1892 97.5184 39.8583 97.467 40.5228 97.467C41.1405 97.467 41.7161 97.4904 42.2495 97.5371C42.783 97.5839 43.2556 97.6448 43.6674 97.7196C43.5458 97.2517 43.396 96.7931 43.2182 96.3439C43.0404 95.8853 42.8111 95.4782 42.5303 95.1226C42.2589 94.7576 41.922 94.4627 41.5196 94.2381C41.1171 94.0135 40.6351 93.9012 40.0736 93.9012C39.7086 93.9012 39.2921 93.9574 38.8242 94.0697C38.3562 94.1726 37.8415 94.3645 37.28 94.6452C36.7184 94.926 36.1054 95.3144 35.4409 95.8104C34.7765 96.2971 34.0652 96.9241 33.3071 97.6916L31.6085 95.6279C32.5069 94.7856 33.368 94.0978 34.1915 93.5643C35.0151 93.0308 35.7872 92.6144 36.5079 92.3149C37.2379 92.006 37.9117 91.7955 38.5294 91.6832C39.1564 91.5708 39.718 91.5147 40.214 91.5147C41.075 91.5147 41.8424 91.6644 42.5163 91.9639C43.1901 92.254 43.7797 92.6565 44.2851 93.1712C44.7999 93.6766 45.2304 94.2756 45.5766 94.9681C45.9323 95.6513 46.2224 96.3907 46.447 97.1862C46.6716 97.9723 46.8307 98.7912 46.9243 99.6429C47.0273 100.495 47.0787 101.342 47.0787 102.184C47.0787 103.082 47.0273 104.046 46.9243 105.076C46.8214 106.105 46.6623 107.228 46.447 108.445L43.6955 107.982ZM44.0886 102.872C44.1073 102.404 44.1213 101.941 44.1307 101.482C44.14 101.023 44.1166 100.546 44.0605 100.05C43.6019 99.9096 43.1199 99.7973 42.6145 99.7131C42.1092 99.6289 41.6038 99.5867 41.0984 99.5867C40.2561 99.5867 39.4372 99.685 38.6417 99.8816C37.8555 100.078 37.177 100.364 36.6061 100.738C36.0352 101.112 35.6047 101.571 35.3146 102.114C35.0338 102.656 34.9777 103.274 35.1461 103.967C35.2772 104.528 35.5299 104.921 35.9042 105.146C36.2879 105.371 36.7465 105.483 37.28 105.483C37.8228 105.483 38.4077 105.394 39.0348 105.216C39.6712 105.029 40.2982 104.804 40.9159 104.542C41.5429 104.271 42.1326 103.985 42.6847 103.686C43.2369 103.386 43.7049 103.115 44.0886 102.872Z"/>
</mask>
<path d="M18.7791 86.9663L18.723 107.673H15.8451L15.8732 105.89C15.5924 106.152 15.3023 106.381 15.0028 106.578C14.7127 106.774 14.4179 106.948 14.1184 107.097C13.8282 107.238 13.5428 107.355 13.262 107.448C12.9813 107.551 12.7145 107.635 12.4618 107.701C11.8722 107.851 11.2873 107.935 10.7071 107.954C9.62142 107.954 8.61066 107.762 7.67477 107.378C6.73888 107.004 5.92466 106.466 5.2321 105.764C4.53954 105.052 3.99204 104.191 3.58961 103.181C3.19654 102.17 3 101.033 3 99.7692C3 98.4964 3.21993 97.364 3.6598 96.372C4.09967 95.3706 4.67524 94.5283 5.38652 93.8451C6.10716 93.1619 6.9167 92.6424 7.81516 92.2868C8.72297 91.9218 9.63546 91.7393 10.5526 91.7393C11.1797 91.7487 11.8161 91.8329 12.4618 91.992C13.014 92.123 13.6083 92.343 14.2447 92.6518C14.8811 92.9513 15.4754 93.3865 16.0276 93.9574L16.1399 86.7697L18.7791 86.9663ZM10.7071 105.371C11.2873 105.371 11.8535 105.277 12.4057 105.09C12.9579 104.903 13.4633 104.641 13.9218 104.304C14.3898 103.957 14.7969 103.546 15.1432 103.068C15.4895 102.591 15.7515 102.067 15.9293 101.496L15.9574 98.5058C15.7889 97.9068 15.5269 97.3593 15.1713 96.8633C14.8156 96.3579 14.3991 95.9274 13.9218 95.5718C13.4445 95.2161 12.9204 94.9401 12.3495 94.7435C11.788 94.547 11.2124 94.4487 10.6228 94.4487C9.93027 94.4487 9.29386 94.5938 8.71361 94.8839C8.13336 95.1647 7.63266 95.5531 7.21151 96.0491C6.79036 96.5451 6.46279 97.13 6.22882 97.8039C5.99485 98.4777 5.87786 99.2077 5.87786 99.9939C5.87786 100.78 5.99485 101.501 6.22882 102.156C6.47215 102.811 6.80439 103.377 7.22554 103.854C7.65605 104.332 8.16611 104.706 8.75572 104.977C9.35469 105.24 10.0051 105.371 10.7071 105.371Z" fill="#EDF2F4"/>
<path d="M29.3702 107.785C28.7057 107.776 28.1161 107.663 27.6014 107.448C27.096 107.233 26.6468 106.957 26.2537 106.62C25.87 106.274 25.5377 105.881 25.257 105.441C24.9856 105.001 24.7563 104.556 24.5691 104.107C24.1199 103.04 23.8391 101.833 23.7268 100.485L24.1058 82.6846H27.0398C26.993 84.3505 26.9462 85.8806 26.8995 87.2751C26.862 88.6602 26.8293 89.9237 26.8012 91.0655C26.7731 92.1979 26.745 93.2133 26.717 94.1118C26.6982 95.0102 26.6795 95.8011 26.6608 96.4843C26.6234 98.094 26.5953 99.3621 26.5766 100.289C26.5953 101.159 26.7216 101.936 26.9556 102.619C27.0492 102.909 27.1709 103.195 27.3206 103.475C27.4797 103.756 27.6669 104.009 27.8821 104.233C28.1068 104.458 28.3688 104.641 28.6683 104.781C28.9771 104.912 29.3328 104.982 29.7352 104.992L29.3702 107.785Z" fill="#EDF2F4"/>
<path d="M43.6955 107.982L43.892 106.002C42.7502 106.732 41.6272 107.261 40.5228 107.589C39.4278 107.916 38.403 108.08 37.4484 108.08C36.7746 108.08 36.1195 107.991 35.4831 107.813C34.856 107.645 34.2992 107.383 33.8125 107.027C33.3352 106.662 32.9468 106.203 32.6473 105.651C32.3572 105.09 32.2121 104.43 32.2121 103.672C32.2121 102.914 32.3244 102.235 32.549 101.636C32.7737 101.037 33.0825 100.509 33.4756 100.05C33.8687 99.5914 34.3319 99.1984 34.8654 98.8708C35.3988 98.5432 35.9697 98.2765 36.5781 98.0706C37.1957 97.8647 37.8415 97.715 38.5153 97.6214C39.1892 97.5184 39.8583 97.467 40.5228 97.467C41.1405 97.467 41.7161 97.4904 42.2495 97.5371C42.783 97.5839 43.2556 97.6448 43.6674 97.7196C43.5458 97.2517 43.396 96.7931 43.2182 96.3439C43.0404 95.8853 42.8111 95.4782 42.5303 95.1226C42.2589 94.7576 41.922 94.4627 41.5196 94.2381C41.1171 94.0135 40.6351 93.9012 40.0736 93.9012C39.7086 93.9012 39.2921 93.9574 38.8242 94.0697C38.3562 94.1726 37.8415 94.3645 37.28 94.6452C36.7184 94.926 36.1054 95.3144 35.4409 95.8104C34.7765 96.2971 34.0652 96.9241 33.3071 97.6916L31.6085 95.6279C32.5069 94.7856 33.368 94.0978 34.1915 93.5643C35.0151 93.0308 35.7872 92.6144 36.5079 92.3149C37.2379 92.006 37.9117 91.7955 38.5294 91.6832C39.1564 91.5708 39.718 91.5147 40.214 91.5147C41.075 91.5147 41.8424 91.6644 42.5163 91.9639C43.1901 92.254 43.7797 92.6565 44.2851 93.1712C44.7999 93.6766 45.2304 94.2756 45.5766 94.9681C45.9323 95.6513 46.2224 96.3907 46.447 97.1862C46.6716 97.9723 46.8307 98.7912 46.9243 99.6429C47.0273 100.495 47.0787 101.342 47.0787 102.184C47.0787 103.082 47.0273 104.046 46.9243 105.076C46.8214 106.105 46.6623 107.228 46.447 108.445L43.6955 107.982ZM44.0886 102.872C44.1073 102.404 44.1213 101.941 44.1307 101.482C44.14 101.023 44.1166 100.546 44.0605 100.05C43.6019 99.9096 43.1199 99.7973 42.6145 99.7131C42.1092 99.6289 41.6038 99.5867 41.0984 99.5867C40.2561 99.5867 39.4372 99.685 38.6417 99.8816C37.8555 100.078 37.177 100.364 36.6061 100.738C36.0352 101.112 35.6047 101.571 35.3146 102.114C35.0338 102.656 34.9777 103.274 35.1461 103.967C35.2772 104.528 35.5299 104.921 35.9042 105.146C36.2879 105.371 36.7465 105.483 37.28 105.483C37.8228 105.483 38.4077 105.394 39.0348 105.216C39.6712 105.029 40.2982 104.804 40.9159 104.542C41.5429 104.271 42.1326 103.985 42.6847 103.686C43.2369 103.386 43.7049 103.115 44.0886 102.872Z" fill="#EDF2F4"/>
<path d="M18.7791 86.9663L18.723 107.673H15.8451L15.8732 105.89C15.5924 106.152 15.3023 106.381 15.0028 106.578C14.7127 106.774 14.4179 106.948 14.1184 107.097C13.8282 107.238 13.5428 107.355 13.262 107.448C12.9813 107.551 12.7145 107.635 12.4618 107.701C11.8722 107.851 11.2873 107.935 10.7071 107.954C9.62142 107.954 8.61066 107.762 7.67477 107.378C6.73888 107.004 5.92466 106.466 5.2321 105.764C4.53954 105.052 3.99204 104.191 3.58961 103.181C3.19654 102.17 3 101.033 3 99.7692C3 98.4964 3.21993 97.364 3.6598 96.372C4.09967 95.3706 4.67524 94.5283 5.38652 93.8451C6.10716 93.1619 6.9167 92.6424 7.81516 92.2868C8.72297 91.9218 9.63546 91.7393 10.5526 91.7393C11.1797 91.7487 11.8161 91.8329 12.4618 91.992C13.014 92.123 13.6083 92.343 14.2447 92.6518C14.8811 92.9513 15.4754 93.3865 16.0276 93.9574L16.1399 86.7697L18.7791 86.9663ZM10.7071 105.371C11.2873 105.371 11.8535 105.277 12.4057 105.09C12.9579 104.903 13.4633 104.641 13.9218 104.304C14.3898 103.957 14.7969 103.546 15.1432 103.068C15.4895 102.591 15.7515 102.067 15.9293 101.496L15.9574 98.5058C15.7889 97.9068 15.5269 97.3593 15.1713 96.8633C14.8156 96.3579 14.3991 95.9274 13.9218 95.5718C13.4445 95.2161 12.9204 94.9401 12.3495 94.7435C11.788 94.547 11.2124 94.4487 10.6228 94.4487C9.93027 94.4487 9.29386 94.5938 8.71361 94.8839C8.13336 95.1647 7.63266 95.5531 7.21151 96.0491C6.79036 96.5451 6.46279 97.13 6.22882 97.8039C5.99485 98.4777 5.87786 99.2077 5.87786 99.9939C5.87786 100.78 5.99485 101.501 6.22882 102.156C6.47215 102.811 6.80439 103.377 7.22554 103.854C7.65605 104.332 8.16611 104.706 8.75572 104.977C9.35469 105.24 10.0051 105.371 10.7071 105.371Z" stroke="#EDF2F4" stroke-width="6" mask="url(#path-6-outside-2_672_6)"/>
<path d="M18.7791 86.9663L18.723 107.673H15.8451L15.8732 105.89C15.5924 106.152 15.3023 106.381 15.0028 106.578C14.7127 106.774 14.4179 106.948 14.1184 107.097C13.8282 107.238 13.5428 107.355 13.262 107.448C12.9813 107.551 12.7145 107.635 12.4618 107.701C11.8722 107.851 11.2873 107.935 10.7071 107.954C9.62142 107.954 8.61066 107.762 7.67477 107.378C6.73888 107.004 5.92466 106.466 5.2321 105.764C4.53954 105.052 3.99204 104.191 3.58961 103.181C3.19654 102.17 3 101.033 3 99.7692C3 98.4964 3.21993 97.364 3.6598 96.372C4.09967 95.3706 4.67524 94.5283 5.38652 93.8451C6.10716 93.1619 6.9167 92.6424 7.81516 92.2868C8.72297 91.9218 9.63546 91.7393 10.5526 91.7393C11.1797 91.7487 11.8161 91.8329 12.4618 91.992C13.014 92.123 13.6083 92.343 14.2447 92.6518C14.8811 92.9513 15.4754 93.3865 16.0276 93.9574L16.1399 86.7697L18.7791 86.9663ZM10.7071 105.371C11.2873 105.371 11.8535 105.277 12.4057 105.09C12.9579 104.903 13.4633 104.641 13.9218 104.304C14.3898 103.957 14.7969 103.546 15.1432 103.068C15.4895 102.591 15.7515 102.067 15.9293 101.496L15.9574 98.5058C15.7889 97.9068 15.5269 97.3593 15.1713 96.8633C14.8156 96.3579 14.3991 95.9274 13.9218 95.5718C13.4445 95.2161 12.9204 94.9401 12.3495 94.7435C11.788 94.547 11.2124 94.4487 10.6228 94.4487C9.93027 94.4487 9.29386 94.5938 8.71361 94.8839C8.13336 95.1647 7.63266 95.5531 7.21151 96.0491C6.79036 96.5451 6.46279 97.13 6.22882 97.8039C5.99485 98.4777 5.87786 99.2077 5.87786 99.9939C5.87786 100.78 5.99485 101.501 6.22882 102.156C6.47215 102.811 6.80439 103.377 7.22554 103.854C7.65605 104.332 8.16611 104.706 8.75572 104.977C9.35469 105.24 10.0051 105.371 10.7071 105.371Z" stroke="#212C62" stroke-width="6" mask="url(#path-6-outside-2_672_6)"/>
<path d="M29.3702 107.785C28.7057 107.776 28.1161 107.663 27.6014 107.448C27.096 107.233 26.6468 106.957 26.2537 106.62C25.87 106.274 25.5377 105.881 25.257 105.441C24.9856 105.001 24.7563 104.556 24.5691 104.107C24.1199 103.04 23.8391 101.833 23.7268 100.485L24.1058 82.6846H27.0398C26.993 84.3505 26.9462 85.8806 26.8995 87.2751C26.862 88.6602 26.8293 89.9237 26.8012 91.0655C26.7731 92.1979 26.745 93.2133 26.717 94.1118C26.6982 95.0102 26.6795 95.8011 26.6608 96.4843C26.6234 98.094 26.5953 99.3621 26.5766 100.289C26.5953 101.159 26.7216 101.936 26.9556 102.619C27.0492 102.909 27.1709 103.195 27.3206 103.475C27.4797 103.756 27.6669 104.009 27.8821 104.233C28.1068 104.458 28.3688 104.641 28.6683 104.781C28.9771 104.912 29.3328 104.982 29.7352 104.992L29.3702 107.785Z" stroke="#EDF2F4" stroke-width="6" mask="url(#path-6-outside-2_672_6)"/>
<path d="M29.3702 107.785C28.7057 107.776 28.1161 107.663 27.6014 107.448C27.096 107.233 26.6468 106.957 26.2537 106.62C25.87 106.274 25.5377 105.881 25.257 105.441C24.9856 105.001 24.7563 104.556 24.5691 104.107C24.1199 103.04 23.8391 101.833 23.7268 100.485L24.1058 82.6846H27.0398C26.993 84.3505 26.9462 85.8806 26.8995 87.2751C26.862 88.6602 26.8293 89.9237 26.8012 91.0655C26.7731 92.1979 26.745 93.2133 26.717 94.1118C26.6982 95.0102 26.6795 95.8011 26.6608 96.4843C26.6234 98.094 26.5953 99.3621 26.5766 100.289C26.5953 101.159 26.7216 101.936 26.9556 102.619C27.0492 102.909 27.1709 103.195 27.3206 103.475C27.4797 103.756 27.6669 104.009 27.8821 104.233C28.1068 104.458 28.3688 104.641 28.6683 104.781C28.9771 104.912 29.3328 104.982 29.7352 104.992L29.3702 107.785Z" stroke="#212C62" stroke-width="6" mask="url(#path-6-outside-2_672_6)"/>
<path d="M43.6955 107.982L43.892 106.002C42.7502 106.732 41.6272 107.261 40.5228 107.589C39.4278 107.916 38.403 108.08 37.4484 108.08C36.7746 108.08 36.1195 107.991 35.4831 107.813C34.856 107.645 34.2992 107.383 33.8125 107.027C33.3352 106.662 32.9468 106.203 32.6473 105.651C32.3572 105.09 32.2121 104.43 32.2121 103.672C32.2121 102.914 32.3244 102.235 32.549 101.636C32.7737 101.037 33.0825 100.509 33.4756 100.05C33.8687 99.5914 34.3319 99.1984 34.8654 98.8708C35.3988 98.5432 35.9697 98.2765 36.5781 98.0706C37.1957 97.8647 37.8415 97.715 38.5153 97.6214C39.1892 97.5184 39.8583 97.467 40.5228 97.467C41.1405 97.467 41.7161 97.4904 42.2495 97.5371C42.783 97.5839 43.2556 97.6448 43.6674 97.7196C43.5458 97.2517 43.396 96.7931 43.2182 96.3439C43.0404 95.8853 42.8111 95.4782 42.5303 95.1226C42.2589 94.7576 41.922 94.4627 41.5196 94.2381C41.1171 94.0135 40.6351 93.9012 40.0736 93.9012C39.7086 93.9012 39.2921 93.9574 38.8242 94.0697C38.3562 94.1726 37.8415 94.3645 37.28 94.6452C36.7184 94.926 36.1054 95.3144 35.4409 95.8104C34.7765 96.2971 34.0652 96.9241 33.3071 97.6916L31.6085 95.6279C32.5069 94.7856 33.368 94.0978 34.1915 93.5643C35.0151 93.0308 35.7872 92.6144 36.5079 92.3149C37.2379 92.006 37.9117 91.7955 38.5294 91.6832C39.1564 91.5708 39.718 91.5147 40.214 91.5147C41.075 91.5147 41.8424 91.6644 42.5163 91.9639C43.1901 92.254 43.7797 92.6565 44.2851 93.1712C44.7999 93.6766 45.2304 94.2756 45.5766 94.9681C45.9323 95.6513 46.2224 96.3907 46.447 97.1862C46.6716 97.9723 46.8307 98.7912 46.9243 99.6429C47.0273 100.495 47.0787 101.342 47.0787 102.184C47.0787 103.082 47.0273 104.046 46.9243 105.076C46.8214 106.105 46.6623 107.228 46.447 108.445L43.6955 107.982ZM44.0886 102.872C44.1073 102.404 44.1213 101.941 44.1307 101.482C44.14 101.023 44.1166 100.546 44.0605 100.05C43.6019 99.9096 43.1199 99.7973 42.6145 99.7131C42.1092 99.6289 41.6038 99.5867 41.0984 99.5867C40.2561 99.5867 39.4372 99.685 38.6417 99.8816C37.8555 100.078 37.177 100.364 36.6061 100.738C36.0352 101.112 35.6047 101.571 35.3146 102.114C35.0338 102.656 34.9777 103.274 35.1461 103.967C35.2772 104.528 35.5299 104.921 35.9042 105.146C36.2879 105.371 36.7465 105.483 37.28 105.483C37.8228 105.483 38.4077 105.394 39.0348 105.216C39.6712 105.029 40.2982 104.804 40.9159 104.542C41.5429 104.271 42.1326 103.985 42.6847 103.686C43.2369 103.386 43.7049 103.115 44.0886 102.872Z" stroke="#EDF2F4" stroke-width="6" mask="url(#path-6-outside-2_672_6)"/>
<path d="M43.6955 107.982L43.892 106.002C42.7502 106.732 41.6272 107.261 40.5228 107.589C39.4278 107.916 38.403 108.08 37.4484 108.08C36.7746 108.08 36.1195 107.991 35.4831 107.813C34.856 107.645 34.2992 107.383 33.8125 107.027C33.3352 106.662 32.9468 106.203 32.6473 105.651C32.3572 105.09 32.2121 104.43 32.2121 103.672C32.2121 102.914 32.3244 102.235 32.549 101.636C32.7737 101.037 33.0825 100.509 33.4756 100.05C33.8687 99.5914 34.3319 99.1984 34.8654 98.8708C35.3988 98.5432 35.9697 98.2765 36.5781 98.0706C37.1957 97.8647 37.8415 97.715 38.5153 97.6214C39.1892 97.5184 39.8583 97.467 40.5228 97.467C41.1405 97.467 41.7161 97.4904 42.2495 97.5371C42.783 97.5839 43.2556 97.6448 43.6674 97.7196C43.5458 97.2517 43.396 96.7931 43.2182 96.3439C43.0404 95.8853 42.8111 95.4782 42.5303 95.1226C42.2589 94.7576 41.922 94.4627 41.5196 94.2381C41.1171 94.0135 40.6351 93.9012 40.0736 93.9012C39.7086 93.9012 39.2921 93.9574 38.8242 94.0697C38.3562 94.1726 37.8415 94.3645 37.28 94.6452C36.7184 94.926 36.1054 95.3144 35.4409 95.8104C34.7765 96.2971 34.0652 96.9241 33.3071 97.6916L31.6085 95.6279C32.5069 94.7856 33.368 94.0978 34.1915 93.5643C35.0151 93.0308 35.7872 92.6144 36.5079 92.3149C37.2379 92.006 37.9117 91.7955 38.5294 91.6832C39.1564 91.5708 39.718 91.5147 40.214 91.5147C41.075 91.5147 41.8424 91.6644 42.5163 91.9639C43.1901 92.254 43.7797 92.6565 44.2851 93.1712C44.7999 93.6766 45.2304 94.2756 45.5766 94.9681C45.9323 95.6513 46.2224 96.3907 46.447 97.1862C46.6716 97.9723 46.8307 98.7912 46.9243 99.6429C47.0273 100.495 47.0787 101.342 47.0787 102.184C47.0787 103.082 47.0273 104.046 46.9243 105.076C46.8214 106.105 46.6623 107.228 46.447 108.445L43.6955 107.982ZM44.0886 102.872C44.1073 102.404 44.1213 101.941 44.1307 101.482C44.14 101.023 44.1166 100.546 44.0605 100.05C43.6019 99.9096 43.1199 99.7973 42.6145 99.7131C42.1092 99.6289 41.6038 99.5867 41.0984 99.5867C40.2561 99.5867 39.4372 99.685 38.6417 99.8816C37.8555 100.078 37.177 100.364 36.6061 100.738C36.0352 101.112 35.6047 101.571 35.3146 102.114C35.0338 102.656 34.9777 103.274 35.1461 103.967C35.2772 104.528 35.5299 104.921 35.9042 105.146C36.2879 105.371 36.7465 105.483 37.28 105.483C37.8228 105.483 38.4077 105.394 39.0348 105.216C39.6712 105.029 40.2982 104.804 40.9159 104.542C41.5429 104.271 42.1326 103.985 42.6847 103.686C43.2369 103.386 43.7049 103.115 44.0886 102.872Z" stroke="#212C62" stroke-width="6" mask="url(#path-6-outside-2_672_6)"/>
</svg>
